<?xml version="1.0" encoding="utf-8"?>
<!-- Generator: Adobe Illustrator 22.0.1, SVG Export Plug-In . SVG Version: 6.00 Build 0)  -->
<svg version="1.1" id="Layer_1" xmlns="http://www.w3.org/2000/svg" xmlns:xlink="http://www.w3.org/1999/xlink" x="0px" y="0px"
	 viewBox="0 0 35.3 35.3" style="enable-background:new 0 0 35.3 35.3;" xml:space="preserve">
<style type="text/css">
	.st0{fill:#563D7C;}
	.st1{fill:#FFFFFF;}
</style>
<g>
	<path class="st0" d="M0,30.8c0,2.5,2,4.6,4.6,4.6h26.2c2.5,0,4.6-2,4.6-4.6V4.6c0-2.5-2-4.6-4.6-4.6H4.6C2,0,0,2,0,4.6V30.8L0,30.8
		z"/>
	<path class="st1" d="M14.6,15.6v-5H19c0.4,0,0.8,0,1.2,0.1c0.4,0.1,0.7,0.2,1,0.4s0.5,0.4,0.7,0.7s0.3,0.7,0.3,1.2
		c0,0.9-0.3,1.5-0.8,1.9s-1.2,0.6-2.1,0.6L14.6,15.6L14.6,15.6z M9.9,7v21.4h10.4c1,0,1.9-0.1,2.8-0.4c0.9-0.2,1.7-0.6,2.4-1.1
		c0.7-0.5,1.3-1.1,1.7-1.9c0.4-0.8,0.6-1.7,0.6-2.8c0-1.3-0.3-2.5-1-3.4c-0.6-0.9-1.6-1.6-2.9-2c1-0.5,1.7-1,2.2-1.8
		c0.5-0.7,0.7-1.6,0.7-2.7c0-1-0.2-1.8-0.5-2.5s-0.8-1.2-1.4-1.6c-0.6-0.4-1.3-0.7-2.2-0.9C21.9,7.1,21,7,20,7H9.9L9.9,7z
		 M14.6,24.7v-5.9h5.1c1,0,1.8,0.2,2.5,0.7c0.6,0.5,0.9,1.3,0.9,2.4c0,0.6-0.1,1-0.3,1.4c-0.2,0.4-0.4,0.6-0.8,0.9
		c-0.3,0.2-0.7,0.4-1.1,0.4c-0.4,0.1-0.9,0.1-1.3,0.1H14.6L14.6,24.7z"/>
</g>
</svg>
