<?xml version="1.0" encoding="utf-8"?>
<!-- Generator: Adobe Illustrator 22.0.1, SVG Export Plug-In . SVG Version: 6.00 Build 0)  -->
<svg version="1.1" id="Layer_1" xmlns="http://www.w3.org/2000/svg" xmlns:xlink="http://www.w3.org/1999/xlink" x="0px" y="0px"
	 viewBox="0 0 310.7 693.9" style="enable-background:new 0 0 310.7 693.9;" xml:space="preserve">
<style type="text/css">
	.st0{fill:#FFFFFF;}
	.st1{fill:#A6A385;}
	.st2{fill:#499D4A;}
	.st3{fill:#58AA50;}
</style>
<g>
	<path class="st0" d="M171.2,693.9l-18.5-6.3c0,0,2.3-94.2-31.5-100.9c-22.5-26.1,3.6-1108.5,84.7-3.6c0,0-27.9,14-32.9,37.9
		C167.6,644.4,171.2,693.9,171.2,693.9L171.2,693.9z"/>
	<path class="st1" d="M171.2,693.9l-18.5-6.3c0,0,2.3-94.2-31.5-100.9c-22.5-26.1,3.6-1108.5,84.7-3.6c0,0-27.9,14-32.9,37.9
		C167.6,644.4,171.2,693.9,171.2,693.9L171.2,693.9z"/>
	<path class="st0" d="M181.1,602.9c0,0,161.8-106.3,123.9-327.6C268.5,114.5,182.4,61.7,173,41.5C162.6,27,152.7,1.8,152.7,1.8
		l6.8,447.4C159.4,449.7,145.5,586.2,181.1,602.9"/>
	<path class="st2" d="M181.1,602.9c0,0,161.8-106.3,123.9-327.6C268.5,114.5,182.4,61.7,173,41.5C162.6,27,152.7,1.8,152.7,1.8
		l6.8,447.4C159.4,449.7,145.5,586.2,181.1,602.9"/>
	<path class="st0" d="M143.2,608.8c0,0-151.9-103.6-142.8-286.1C8.9,140.1,116.2,50.5,136.9,34.2c13.5-14.4,14-19.8,14.9-34.2
		c9.5,20.3,7.7,303.3,9,336.6C164.8,465,153.6,584.4,143.2,608.8z"/>
	<path class="st3" d="M143.2,608.8c0,0-151.9-103.6-142.8-286.1C8.9,140.1,116.2,50.5,136.9,34.2c13.5-14.4,14-19.8,14.9-34.2
		c9.5,20.3,7.7,303.3,9,336.6C164.8,465,153.6,584.4,143.2,608.8z"/>
</g>
</svg>
