<?xml version="1.0" encoding="utf-8"?>
<!-- Generator: Adobe Illustrator 22.0.1, SVG Export Plug-In . SVG Version: 6.00 Build 0)  -->
<svg version="1.1" id="Layer_1" xmlns="http://www.w3.org/2000/svg" xmlns:xlink="http://www.w3.org/1999/xlink" x="0px" y="0px"
	 viewBox="0 0 42.1 33.1" style="enable-background:new 0 0 42.1 33.1;" xml:space="preserve">
<style type="text/css">
	.st0{fill:#F7A80D;}
</style>
<path class="st0" d="M12.3,21.1l-3.9,1.7l3.6,1.5l4.1-1.5L12.3,21.1L12.3,21.1z M6.5,23.2l-0.1,7.5l5.6,2.5v-7.7L6.5,23.2L6.5,23.2z
	 M18.1,23.2L13,25.1v7.3l5.1-2.1V23.2L18.1,23.2z M24.2,0l-3.9,1.7l3.6,1.5L28,1.7L24.2,0L24.2,0z M18.8,2.2v7.5l4.8,1.4l0.2-6.8
	L18.8,2.2L18.8,2.2z M29.6,2.6L25,4.6v7.3l4.6-2.1L29.6,2.6L29.6,2.6z M5.9,10.5l-3.9,1.7l3.6,1.5l4.1-1.5L5.9,10.5L5.9,10.5z
	 M0.1,12.6L0,20l5.6,2.5v-7.7L0.1,12.6z M11.7,12.6l-5.1,1.9v7.3l5.1-2.1V12.6z M18.4,10.2l-3.9,1.7l3.6,1.5l4.1-1.5L18.4,10.2
	L18.4,10.2z M12.6,12.3l-0.1,7.5l5.6,2.5v-7.7L12.6,12.3z M24.2,12.3l-5.1,1.9v7.3l5.1-2.1V12.3L24.2,12.3z M36.3,0l-3.9,1.7L36,3.2
	l4.1-1.5L36.3,0L36.3,0z M30.5,2.1l-0.1,7.5L36,12V4.3L30.5,2.1z M42.1,2.1L37,4v7.3l5.1-2.1V2.1z"/>
</svg>
