<?xml version="1.0" encoding="utf-8"?>
<!-- Generator: Adobe Illustrator 22.0.1, SVG Export Plug-In . SVG Version: 6.00 Build 0)  -->
<svg version="1.1" id="Layer_1" xmlns="http://www.w3.org/2000/svg" xmlns:xlink="http://www.w3.org/1999/xlink" x="0px" y="0px"
	 viewBox="0 0 29.2 32.6" style="enable-background:new 0 0 29.2 32.6;" xml:space="preserve">
<style type="text/css">
	.st0{fill:#A4C639;}
	.st1{fill:none;stroke:#A4C639;stroke-width:3.930856e-02;stroke-linecap:round;stroke-linejoin:round;}
	.st2{fill:#FFFFFF;}
</style>
<g>
	<path class="st0" d="M10,19.7c1.1,0,2,0.9,2,2v8.8c0,1.1-0.9,2-2,2c-1.1,0-2-0.9-2-2v-8.8C8,20.6,8.9,19.7,10,19.7L10,19.7z"/>
	<path class="st0" d="M5.3,9.2c0,0.1,0,0.2,0,0.2v13.3c0,1.4,1.1,2.6,2.5,2.6h13.5c1.4,0,2.5-1.2,2.5-2.6V9.4c0-0.1,0-0.2,0-0.2
		L5.3,9.2L5.3,9.2z"/>
	<path class="st0" d="M19.2,19.7c1.1,0,2,0.9,2,2v8.8c0,1.1-0.9,2-2,2c-1.1,0-2-0.9-2-2v-8.8C17.2,20.6,18.1,19.7,19.2,19.7
		L19.2,19.7z M2,10.3c1.1,0,2,0.9,2,2v8.8c0,1.1-0.9,2-2,2c-1.1,0-2-0.9-2-2v-8.8C0,11.3,0.9,10.3,2,10.3L2,10.3z M27.2,10.3
		c1.1,0,2,0.9,2,2v8.8c0,1.1-0.9,2-2,2c-1.1,0-2-0.9-2-2v-8.8C25.2,11.3,26.1,10.3,27.2,10.3L27.2,10.3z M5.4,8.3
		C5.5,4.2,9,0.9,13.6,0.4h2.1c4.6,0.4,8.1,3.8,8.2,7.9H5.4z"/>
	<path class="st1" d="M6.1,0l2.2,3.7 M23.1,0L21,3.8"/>
	<path class="st2" d="M11.9,4.6c0,0.6-0.5,1-1.1,1c-0.6,0-1.1-0.5-1.1-1v0c0-0.6,0.5-1,1.1-1C11.4,3.6,11.9,4,11.9,4.6L11.9,4.6z
		 M19.8,4.6c0,0.6-0.5,1-1.1,1c-0.6,0-1.1-0.5-1.1-1v0c0-0.6,0.5-1,1.1-1C19.3,3.6,19.8,4,19.8,4.6L19.8,4.6z"/>
</g>
</svg>
