<?xml version="1.0" encoding="utf-8"?>
<!-- Generator: Adobe Illustrator 22.0.1, SVG Export Plug-In . SVG Version: 6.00 Build 0)  -->
<svg version="1.1" id="Layer_1" xmlns="http://www.w3.org/2000/svg" xmlns:xlink="http://www.w3.org/1999/xlink" x="0px" y="0px"
	 viewBox="0 0 31.1 32.9" style="enable-background:new 0 0 31.1 32.9;" xml:space="preserve">
<style type="text/css">
	.st0{fill:#B3B3B3;}
	.st1{fill:#A6120D;}
	.st2{fill:#DD1B16;}
	.st3{fill:#F2F2F2;}
</style>
<g>
	<path class="st0" d="M15.5,0L0,5.4l2.3,20.3l13,7.2l13.2-7.2l2.6-20.3L15.5,0z"/>
	<path class="st1" d="M29.5,6.6l-14-4.9l-0.2,29.5l11.8-6.5L29.5,6.6L29.5,6.6z"/>
	<path class="st2" d="M1.7,6.5l2,18.2l11.6,6.5l0.2-29.5L1.7,6.5L1.7,6.5z"/>
	<path class="st3" d="M19.3,17.4l-3.9,1.8h-4.1l-2,4.8H5.7l9.7-21.2L19.3,17.4L19.3,17.4z M18.9,16.5l-3.4-6.9l-2.9,6.7h2.8
		L18.9,16.5L18.9,16.5z"/>
	<path class="st0" d="M15.5,2.8v6.8l3.2,6.8h-3.3v2.8h4.5l2.1,4.9l3.4,0.1L15.5,2.8L15.5,2.8z"/>
</g>
</svg>
