<?xml version="1.0" encoding="UTF-8" standalone="no"?>
<svg
   xmlns:dc="http://purl.org/dc/elements/1.1/"
   xmlns:cc="http://creativecommons.org/ns#"
   xmlns:rdf="http://www.w3.org/1999/02/22-rdf-syntax-ns#"
   xmlns:svg="http://www.w3.org/2000/svg"
   xmlns="http://www.w3.org/2000/svg"
   xmlns:sodipodi="http://sodipodi.sourceforge.net/DTD/sodipodi-0.dtd"
   xmlns:inkscape="http://www.inkscape.org/namespaces/inkscape"
   version="1.1"
   id="Layer_1"
   x="0px"
   y="0px"
   viewBox="0 0 699.99996 699.99998"
   xml:space="preserve"
   sodipodi:docname="mongodb.svg"
   width="700"
   height="700"
   inkscape:version="1.0.2-2 (e86c870879, 2021-01-15)"><metadata
   id="metadata54"><rdf:RDF><cc:Work
       rdf:about=""><dc:format>image/svg+xml</dc:format><dc:type
         rdf:resource="http://purl.org/dc/dcmitype/StillImage" /><dc:title></dc:title></cc:Work></rdf:RDF></metadata><defs
   id="defs52" /><sodipodi:namedview
   pagecolor="#ffffff"
   bordercolor="#666666"
   borderopacity="1"
   objecttolerance="10"
   gridtolerance="10"
   guidetolerance="10"
   inkscape:pageopacity="0"
   inkscape:pageshadow="2"
   inkscape:window-width="1920"
   inkscape:window-height="1017"
   id="namedview50"
   showgrid="false"
   inkscape:zoom="0.86617778"
   inkscape:cx="33.712256"
   inkscape:cy="409.84487"
   inkscape:window-x="-8"
   inkscape:window-y="-8"
   inkscape:window-maximized="1"
   inkscape:current-layer="Layer_1" />
<style
   type="text/css"
   id="style33">
	.st0{fill:#FFFFFF;}
	.st1{fill:#A6A385;}
	.st2{fill:#499D4A;}
	.st3{fill:#58AA50;}
</style>
<g
   id="g47"
   transform="translate(193.94869,3.4634922)">
	<path
   class="st0"
   d="m 171.2,693.9 -18.5,-6.3 c 0,0 2.3,-94.2 -31.5,-100.9 -22.5,-26.1 3.6,-1108.5 84.7,-3.6 0,0 -27.9,14 -32.9,37.9 -5.4,23.4 -1.8,72.9 -1.8,72.9 z"
   id="path35" />
	<path
   class="st1"
   d="m 171.2,693.9 -18.5,-6.3 c 0,0 2.3,-94.2 -31.5,-100.9 -22.5,-26.1 3.6,-1108.5 84.7,-3.6 0,0 -27.9,14 -32.9,37.9 -5.4,23.4 -1.8,72.9 -1.8,72.9 z"
   id="path37" />
	<path
   class="st0"
   d="m 181.1,602.9 c 0,0 161.8,-106.3 123.9,-327.6 C 268.5,114.5 182.4,61.7 173,41.5 162.6,27 152.7,1.8 152.7,1.8 l 6.8,447.4 c -0.1,0.5 -14,137 21.6,153.7"
   id="path39" />
	<path
   class="st2"
   d="m 181.1,602.9 c 0,0 161.8,-106.3 123.9,-327.6 C 268.5,114.5 182.4,61.7 173,41.5 162.6,27 152.7,1.8 152.7,1.8 l 6.8,447.4 c -0.1,0.5 -14,137 21.6,153.7"
   id="path41" />
	<path
   class="st0"
   d="M 143.2,608.8 C 143.2,608.8 -8.7,505.2 0.4,322.7 8.9,140.1 116.2,50.5 136.9,34.2 150.4,19.8 150.9,14.4 151.8,0 c 9.5,20.3 7.7,303.3 9,336.6 4,128.4 -7.2,247.8 -17.6,272.2 z"
   id="path43" />
	<path
   class="st3"
   d="M 143.2,608.8 C 143.2,608.8 -8.7,505.2 0.4,322.7 8.9,140.1 116.2,50.5 136.9,34.2 150.4,19.8 150.9,14.4 151.8,0 c 9.5,20.3 7.7,303.3 9,336.6 4,128.4 -7.2,247.8 -17.6,272.2 z"
   id="path45" />
</g>
</svg>
