<?xml version="1.0" encoding="utf-8"?>
<!-- Generator: Adobe Illustrator 22.0.1, SVG Export Plug-In . SVG Version: 6.00 Build 0)  -->
<svg version="1.1" id="Layer_1" xmlns="http://www.w3.org/2000/svg" xmlns:xlink="http://www.w3.org/1999/xlink" x="0px" y="0px"
	 viewBox="0 0 35.4 36.5" style="enable-background:new 0 0 35.4 36.5;" xml:space="preserve">
<style type="text/css">
	.st0{fill:#336791;}
	.st1{fill:#FFFFFF;}
</style>
<g>
	<path d="M35.3,21.9c-0.2-0.6-0.8-1.1-1.5-1.2c-0.3-0.1-0.7,0-1.2,0.1c-0.8,0.2-1.4,0.2-1.8,0.2c1.6-2.8,3-5.9,3.7-8.9
		c1.2-4.8,0.6-7-0.2-8c-2.1-2.6-5-4-8.7-4.1c-1.9,0-3.6,0.4-4.5,0.6c-0.8-0.1-1.7-0.2-2.6-0.2c-1.7,0-3.3,0.4-4.6,1.1
		c-0.7-0.2-1.9-0.6-3.2-0.8C7.6,0.2,5,0.6,3.1,1.9C0.9,3.5-0.2,6.3,0,10.2c0.1,1.2,0.7,5,1.8,8.5c0.6,2,1.3,3.7,2,5
		c1,1.8,2,2.9,3.2,3.3c0.7,0.2,1.8,0.4,3.1-0.7c0.2,0.2,0.4,0.4,0.7,0.6c0.4,0.2,0.8,0.4,1.2,0.5c1.6,0.4,3,0.3,4.3-0.3
		c0,0.2,0,0.4,0,0.6c0,0.3,0,0.6,0,0.9c0.1,1.9,0.2,3.3,0.6,4.3c0,0.1,0,0.1,0.1,0.2c0.2,0.6,0.5,1.5,1.3,2.3c0.8,0.8,1.8,1,2.7,1
		c0.5,0,0.9-0.1,1.3-0.1c1.4-0.3,2.9-0.7,4-2.3c1.1-1.5,1.6-3.8,1.7-7.3c0-0.1,0-0.2,0-0.3l0-0.2l0.2,0l0.1,0
		c1.4,0.1,3.1-0.2,4.1-0.7C33.3,25.1,35.9,23.7,35.3,21.9"/>
	<path class="st0" d="M32.9,22.2c-4.1,0.9-4.4-0.5-4.4-0.5C32.9,15.2,34.7,7,33.1,5c-4.3-5.5-11.7-2.9-11.8-2.8l0,0
		c-0.8-0.2-1.7-0.3-2.8-0.3c-1.9,0-3.3,0.5-4.4,1.3c0,0-13.2-5.5-12.6,6.9c0.1,2.6,3.8,19.8,8.1,14.6c1.6-1.9,3.1-3.5,3.1-3.5
		c0.8,0.5,1.7,0.8,2.6,0.7l0.1-0.1c0,0.2,0,0.5,0,0.7c-1.1,1.2-0.8,1.5-3,1.9c-2.3,0.5-0.9,1.3-0.1,1.5c1,0.3,3.5,0.6,5.1-1.7
		l-0.1,0.3c0.4,0.3,0.7,2.3,0.7,4c-0.1,1.7-0.1,2.9,0.3,3.9c0.3,0.9,0.7,3,3.6,2.4c2.4-0.5,3.7-1.9,3.9-4.1c0.1-1.6,0.4-1.4,0.4-2.8
		l0.2-0.7c0.3-2.2,0-2.9,1.5-2.6l0.4,0c1.1,0.1,2.6-0.2,3.4-0.6C33.7,23.3,34.8,21.9,32.9,22.2L32.9,22.2"/>
	<path class="st1" d="M14.9,11.3c-0.4-0.1-0.7,0-0.9,0.1c-0.1,0.1-0.1,0.2-0.1,0.2c0,0.2,0.1,0.3,0.2,0.4c0.2,0.2,0.5,0.4,0.7,0.5
		c0,0,0.1,0,0.1,0c0.4,0,0.9-0.4,0.9-0.6C15.9,11.5,15.4,11.3,14.9,11.3 M27.3,11.3c0-0.3-0.5-0.3-0.9-0.3c-0.4,0.1-0.8,0.3-0.8,0.5
		c0,0.2,0.4,0.5,0.8,0.5c0,0,0.1,0,0.1,0c0.3,0,0.5-0.2,0.6-0.3C27.2,11.6,27.3,11.4,27.3,11.3"/>
	<path class="st1" d="M34.3,22.1c-0.2-0.5-0.7-0.6-1.5-0.5c-2.5,0.5-3.4,0.2-3.7-0.1c1.9-3,3.5-6.5,4.4-9.9c0.4-1.6,0.6-3,0.7-4.2
		c0-1.3-0.2-2.3-0.7-2.9C31.7,2.3,28.9,1,25.6,1c-2.3,0-4.2,0.6-4.6,0.7c-0.8-0.2-1.6-0.3-2.6-0.3c-1.7,0-3.2,0.4-4.4,1.2
		c-0.5-0.2-1.9-0.7-3.6-0.9c-2.9-0.5-5.2-0.1-6.8,1c-2,1.4-2.9,3.9-2.7,7.4c0.1,1.2,0.7,4.8,1.8,8.3c1.4,4.6,2.9,7.2,4.5,7.7
		c0.2,0.1,0.4,0.1,0.6,0.1c0.6,0,1.3-0.3,2-1.2c0.9-1.1,1.8-2.1,2.8-3.2c0.6,0.3,1.3,0.5,2,0.5c0,0,0,0,0,0.1
		c-0.1,0.1-0.2,0.3-0.4,0.4c-0.5,0.6-0.6,0.7-2.2,1.1c-0.4,0.1-1.6,0.3-1.7,1.2c0,0.9,1.4,1.3,1.6,1.3c0.6,0.1,1.1,0.2,1.6,0.2
		c1.3,0,2.4-0.4,3.3-1.2c0,3.2,0.1,6.4,0.5,7.4c0.3,0.8,1.1,2.7,3.6,2.7c0.4,0,0.8,0,1.2-0.1c2.6-0.6,3.7-1.7,4.1-4.2
		c0.2-1.3,0.6-4.5,0.8-6.2c0.4,0.1,0.9,0.2,1.4,0.2c1.1,0,2.5-0.2,3.3-0.6C32.9,24.1,34.6,23.1,34.3,22.1L34.3,22.1z M28.2,10.6
		c0,0.5-0.1,1-0.2,1.4c-0.1,0.5-0.2,1-0.2,1.7c0,0.6,0.1,1.3,0.1,1.9c0.2,1.3,0.3,2.6-0.3,3.9c-0.1-0.2-0.2-0.4-0.3-0.6
		c-0.1-0.2-0.2-0.5-0.5-0.9c-0.9-1.6-3-5.3-1.9-6.8C25.4,10.8,26.2,10.3,28.2,10.6L28.2,10.6z M25.8,2c3,0.1,5.3,1.2,7,3.3
		c1.3,1.6-0.1,9-4.2,15.4c0-0.1-0.1-0.1-0.1-0.2l-0.1-0.1c1-1.7,0.8-3.4,0.7-5c-0.1-0.6-0.1-1.2-0.1-1.8c0-0.6,0.1-1.1,0.2-1.6
		c0.1-0.6,0.2-1.2,0.2-1.9c0-0.1,0-0.2,0-0.3c-0.1-0.7-0.9-2.8-2.5-4.7c-0.9-1-2.2-2.2-4-3C23.5,2.1,24.6,2,25.8,2L25.8,2z
		 M9.2,24.3c-0.8,1-1.4,0.8-1.6,0.7c-1.2-0.4-2.6-3-3.9-7c-1.1-3.5-1.7-7-1.7-8C1.9,6.9,2.6,4.7,4.3,3.5c2.7-1.9,7.1-0.8,8.9-0.2
		c0,0-0.1,0-0.1,0.1c-2.9,2.9-2.8,8-2.8,8.3c0,0.1,0,0.3,0,0.5c0.1,0.8,0.1,2.4-0.1,4.2c-0.2,1.7,0.3,3.3,1.4,4.5
		c0.1,0.1,0.2,0.2,0.4,0.3C11.4,21.7,10.4,22.9,9.2,24.3L9.2,24.3z M12.3,20.2c-0.9-0.9-1.3-2.3-1.1-3.6c0.3-1.9,0.2-3.5,0.1-4.4
		c0-0.1,0-0.2,0-0.3c0.4-0.4,2.4-1.4,3.8-1.1c0.6,0.1,1,0.6,1.2,1.3c0.8,3.9,0.1,5.5-0.5,6.8c-0.1,0.3-0.2,0.5-0.3,0.8l-0.1,0.2
		c-0.2,0.5-0.4,1-0.5,1.4C14,21.3,13,20.9,12.3,20.2L12.3,20.2z M12.5,25.4c-0.3-0.1-0.5-0.2-0.7-0.3c0.1-0.1,0.3-0.1,0.7-0.2
		c1.8-0.4,2.1-0.6,2.8-1.4c0.1-0.2,0.3-0.4,0.5-0.6l0,0c0.3-0.4,0.5-0.3,0.8-0.2c0.2,0.1,0.4,0.4,0.5,0.7c0,0.1,0.1,0.4-0.1,0.6
		C15.7,25.8,13.8,25.8,12.5,25.4z M22.1,34.4c-2.3,0.5-3.1-0.7-3.6-2c-0.3-0.9-0.5-4.7-0.4-8.9c0-0.1,0-0.1,0-0.2
		c0-0.1,0-0.2-0.1-0.3c-0.2-0.6-0.6-1.1-1.1-1.3c-0.2-0.1-0.6-0.2-1-0.1c0.1-0.4,0.3-0.8,0.4-1.3l0.1-0.2c0.1-0.2,0.2-0.5,0.3-0.7
		c0.6-1.4,1.5-3.2,0.5-7.5c-0.3-1.6-1.5-2.4-3.2-2.2c-1,0.1-2,0.5-2.5,0.8c-0.1,0.1-0.2,0.1-0.3,0.2C11.5,9,12,6,13.8,4.1
		c1.2-1.2,2.7-1.8,4.7-1.7c3.8,0.1,6.2,2,7.5,3.6c1.2,1.4,1.8,2.8,2.1,3.5c-1.9-0.2-3.2,0.2-3.9,1.1c-1.4,2,0.8,6,1.8,7.9
		c0.2,0.3,0.4,0.7,0.4,0.8c0.3,0.8,0.8,1.4,1.1,1.8c0.1,0.1,0.2,0.2,0.3,0.4c-0.6,0.2-1.6,0.6-1.5,2.5c-0.1,1-0.6,5.5-0.9,7.1
		C25.1,33.2,24.3,34,22.1,34.4L22.1,34.4z M31.6,23.6c-0.6,0.3-1.6,0.5-2.5,0.5c-1,0-1.6-0.1-1.7-0.2c-0.1-1.2,0.4-1.3,0.9-1.5
		c0.1,0,0.1,0,0.2-0.1c0,0,0.1,0.1,0.1,0.1c0.8,0.6,2.3,0.6,4.4,0.2l0,0C32.8,22.9,32.3,23.3,31.6,23.6L31.6,23.6z"/>
</g>
</svg>
