<?xml version="1.0" encoding="utf-8"?>
<!-- Generator: Adobe Illustrator 22.0.1, SVG Export Plug-In . SVG Version: 6.00 Build 0)  -->
<svg version="1.1" id="Layer_1" xmlns="http://www.w3.org/2000/svg" xmlns:xlink="http://www.w3.org/1999/xlink" x="0px" y="0px"
	 viewBox="0 0 40.5 36.4" style="enable-background:new 0 0 40.5 36.4;" xml:space="preserve">
<style type="text/css">
	.st0{fill:#FFFFFF;}
	.st1{fill:#53C1DE;}
</style>
<g>
	<path class="st0" d="M0,18.1c0,3.1,3,5.9,7.7,7.5c-0.9,4.7-0.2,8.5,2.4,10s6.6,0.5,10.3-2.8c3.7,3.1,7.3,4.4,9.9,2.9
		s3.5-5.6,2.5-10.5c4.9-1.6,7.6-4.1,7.6-7.2c0-3-3-5.6-7.6-7.2c1-5.1,0.2-8.8-2.5-10.4c-2.6-1.5-6.3-0.2-10,3
		C16.4,0,12.7-1.1,10.1,0.5C7.5,2.2,6.8,6.1,7.7,10.9C3.1,12.5,0,15.2,0,18.1z"/>
	<path class="st1" d="M31.9,12.6c-0.4-0.1-0.8-0.3-1.2-0.4c0.1-0.3,0.1-0.5,0.2-0.8c0.9-4.3,0.3-7.7-1.7-8.8c-1.9-1.1-4.9,0-8,2.7
		c-0.3,0.3-0.6,0.5-0.9,0.8c-0.2-0.2-0.4-0.4-0.6-0.6c-3.2-2.9-6.5-4.1-8.5-3C9.4,3.7,8.8,6.9,9.6,11c0.1,0.4,0.2,0.8,0.3,1.2
		c-0.5,0.1-0.9,0.3-1.3,0.4c-3.8,1.3-6.2,3.4-6.2,5.6S5,22.7,9,24c0.3,0.1,0.6,0.2,1,0.3c-0.1,0.4-0.2,0.9-0.3,1.3
		c-0.8,4-0.2,7.1,1.7,8.2c1.9,1.1,5.2,0,8.3-2.8c0.2-0.2,0.5-0.4,0.8-0.7c0.3,0.3,0.6,0.6,1,0.9c3.1,2.6,6.1,3.7,7.9,2.6
		c1.9-1.1,2.6-4.5,1.7-8.6c-0.1-0.3-0.1-0.6-0.2-1c0.2-0.1,0.5-0.1,0.7-0.2c4.1-1.4,6.8-3.6,6.8-5.8C38.3,16,35.8,13.9,31.9,12.6
		L31.9,12.6z"/>
	<path class="st0" d="M31,22.5c-0.2,0.1-0.4,0.1-0.6,0.2c-0.5-1.4-1.1-3-1.8-4.6c0.7-1.5,1.3-3.1,1.8-4.5c0.4,0.1,0.7,0.2,1.1,0.3
		c3.3,1.1,5.4,2.8,5.4,4.1C36.7,19.5,34.5,21.3,31,22.5L31,22.5z M29.5,25.5c0.4,1.8,0.4,3.5,0.2,4.7c-0.2,1.2-0.6,1.9-1.2,2.2
		c-1.1,0.7-3.6-0.2-6.2-2.4c-0.3-0.3-0.6-0.5-0.9-0.8c1-1.1,2-2.4,3-3.8c1.7-0.2,3.4-0.4,4.9-0.8C29.4,24.9,29.4,25.2,29.5,25.5
		L29.5,25.5z M14.6,32.3c-1.1,0.4-2,0.4-2.5,0.1c-1.1-0.7-1.6-3.2-1-6.6c0.1-0.4,0.2-0.8,0.3-1.2c1.5,0.3,3.1,0.6,4.8,0.7
		c1,1.4,2,2.7,3.1,3.8c-0.2,0.2-0.5,0.4-0.7,0.6C17.2,31,15.8,31.9,14.6,32.3L14.6,32.3z M9.4,22.5c-1.8-0.6-3.2-1.4-4.2-2.2
		c-0.9-0.8-1.3-1.5-1.3-2.1c0-1.3,2-3,5.2-4.1c0.4-0.1,0.8-0.3,1.2-0.4c0.5,1.5,1,3,1.8,4.5c-0.7,1.6-1.3,3.1-1.8,4.6
		C10,22.7,9.7,22.6,9.4,22.5z M11.1,10.7C10.4,7.2,10.9,4.6,12,4c1.2-0.7,3.9,0.3,6.7,2.8c0.2,0.2,0.4,0.3,0.5,0.5
		c-1,1.1-2.1,2.4-3.1,3.8c-1.7,0.2-3.3,0.4-4.8,0.7C11.3,11.4,11.2,11.1,11.1,10.7L11.1,10.7z M26.6,14.5c-0.4-0.6-0.7-1.2-1.1-1.8
		c1.1,0.1,2.2,0.3,3.3,0.6c-0.3,1-0.7,2-1.2,3.1C27.3,15.8,27,15.1,26.6,14.5L26.6,14.5z M20.3,8.4C21,9.2,21.7,10,22.4,11
		c-1.4-0.1-2.8-0.1-4.3,0C18.9,10,19.6,9.1,20.3,8.4L20.3,8.4z M13.9,14.5c-0.4,0.6-0.7,1.2-1,1.9c-0.4-1.1-0.8-2.1-1.1-3.1
		c1-0.2,2.1-0.4,3.3-0.6C14.7,13.3,14.3,13.9,13.9,14.5z M15.1,23.7c-1.2-0.1-2.3-0.3-3.3-0.5c0.3-1,0.7-2.1,1.2-3.2
		c0.3,0.6,0.7,1.2,1,1.9C14.3,22.5,14.7,23.1,15.1,23.7z M20.3,28.1c-0.7-0.8-1.5-1.7-2.2-2.6c0.7,0,1.4,0,2.1,0s1.5,0,2.2,0
		C21.8,26.4,21.1,27.3,20.3,28.1z M27.7,19.9c0.5,1.1,0.9,2.2,1.2,3.2c-1,0.2-2.2,0.4-3.4,0.6c0.4-0.6,0.7-1.2,1.1-1.8
		C27,21.2,27.3,20.6,27.7,19.9L27.7,19.9z M25.3,21.1c-0.5,0.9-1.1,1.9-1.7,2.8C22.5,24,21.4,24,20.3,24c-1.1,0-2.2,0-3.3-0.1
		c-0.6-0.9-1.2-1.8-1.8-2.8c-0.5-0.9-1.1-1.9-1.5-2.9c0.5-1,1-2,1.5-2.9l0,0c0.5-0.9,1.1-1.9,1.7-2.8c1.1-0.1,2.2-0.1,3.3-0.1
		c1.1,0,2.2,0,3.3,0.1c0.6,0.9,1.2,1.8,1.7,2.8c0.5,0.9,1.1,1.9,1.6,2.9C26.4,19.2,25.9,20.1,25.3,21.1L25.3,21.1z M28.5,3.9
		c1.2,0.7,1.7,3.5,0.9,7.2c0,0.2-0.1,0.5-0.2,0.7c-1.5-0.3-3.1-0.6-4.8-0.8c-1-1.4-2-2.7-3-3.8c0.3-0.3,0.5-0.5,0.8-0.8
		C24.9,4.2,27.3,3.3,28.5,3.9L28.5,3.9z"/>
	<path class="st1" d="M20.3,14.9c1.8,0,3.2,1.4,3.2,3.2c0,1.8-1.4,3.2-3.2,3.2c-1.8,0-3.2-1.4-3.2-3.2
		C17.1,16.4,18.5,14.9,20.3,14.9"/>
</g>
</svg>
